<svg width="15" height="16" viewBox="0 0 15 16" fill="none" xmlns="http://www.w3.org/2000/svg">
<path fill-rule="evenodd" clip-rule="evenodd" d="M13.6659 9.01758L4.17955 9.97667C3.92152 10.0024 3.6953 10.2526 3.6953 10.5117C3.6953 10.7465 3.88636 10.9377 4.12121 10.9377H13.602C13.9553 10.9377 14.2412 11.2239 14.2412 11.5768C14.2412 11.9297 13.9553 12.2161 13.602 12.2161H4.12121C4.1103 12.2161 4.09924 12.2158 4.08833 12.2152C3.175 12.1977 2.43545 11.4582 2.41803 10.5448C2.41758 10.5338 2.41727 10.5227 2.41727 10.5118C2.41727 10.0685 2.58606 9.63773 2.89273 9.29879C3.19955 8.95985 3.61121 8.74894 4.05242 8.70485L4.35909 8.67424L2.36288 1.77818H1.13909C0.786061 1.77818 0.5 1.49197 0.5 1.13909C0.5 0.786212 0.786061 0.5 1.13909 0.5H2.84318C3.12773 0.5 3.37803 0.688182 3.45697 0.961364L3.81682 2.20409H13.602C13.9553 2.20409 14.2412 2.49015 14.2412 2.84318V8.38167C14.2412 8.71015 13.9923 8.98485 13.6659 9.01758ZM12.963 3.48227H4.18667L5.65227 8.545L12.963 7.80333V3.48227Z" fill="black"/>
<path d="M2.73667 15.5C3.50142 15.5 4.12137 14.88 4.12137 14.1153C4.12137 13.3506 3.50142 12.7306 2.73667 12.7306C1.97193 12.7306 1.35198 13.3506 1.35198 14.1153C1.35198 14.88 1.97193 15.5 2.73667 15.5Z" fill="black"/>
<path d="M12.8565 15.5C13.6213 15.5 14.2412 14.88 14.2412 14.1153C14.2412 13.3506 13.6213 12.7306 12.8565 12.7306C12.0918 12.7306 11.4718 13.3506 11.4718 14.1153C11.4718 14.88 12.0918 15.5 12.8565 15.5Z" fill="black"/>
</svg>
